<?xml version="1.0" encoding="utf-8"?>
<!-- Generator: Adobe Illustrator 17.0.0, SVG Export Plug-In . SVG Version: 6.00 Build 0)  -->
<!DOCTYPE svg PUBLIC "-//W3C//DTD SVG 1.1//EN" "http://www.w3.org/Graphics/SVG/1.1/DTD/svg11.dtd">
<svg version="1.1" id="Layer_1" xmlns="http://www.w3.org/2000/svg" xmlns:xlink="http://www.w3.org/1999/xlink" x="0px" y="0px"
	 width="120px" height="120px" viewBox="0 0 120 120" enable-background="new 0 0 120 120" xml:space="preserve">
<g>
	<polygon fill="#FFFFFF" points="53.603,0.82 0.8,96.5 109.398,96.231 57.096,2.05 	"/>
	<polygon fill="#1B1C20" points="28.885,74.867 28.143,79.594 23.204,79.594 22.953,81.233 27.38,81.233 26.704,85.489 
		22.276,85.489 21.285,91.844 15.256,91.844 17.916,74.867 	"/>
	<path fill="#1B1C20" d="M36.212,76.053c-0.124,0.791-0.476,1.431-1.057,1.914c-0.583,0.484-1.283,0.727-2.105,0.727
		c-0.742,0-1.326-0.195-1.755-0.583c-0.428-0.389-0.644-0.908-0.644-1.563c0-0.162,0.014-0.327,0.043-0.495
		c0.124-0.784,0.477-1.419,1.058-1.902c0.582-0.484,1.291-0.726,2.128-0.726c0.733,0,1.314,0.197,1.739,0.588
		c0.425,0.393,0.637,0.912,0.637,1.556C36.255,75.73,36.242,75.893,36.212,76.053 M35.613,79.891l-1.887,11.953h-5.518l1.887-11.953
		H35.613z"/>
	<polygon fill="#1B1C20" points="49.864,79.891 44.346,87.656 48.01,87.656 47.355,91.844 35.721,91.844 41.098,84.069 
		37.412,84.069 38.066,79.891 	"/>
	<path fill="#1B1C20" d="M60.354,80.088l-0.709,4.53c-0.648-0.498-1.337-0.747-2.072-0.747c-1.353,0-2.141,0.708-2.367,2.121
		c-0.02,0.126-0.032,0.242-0.032,0.352c0,1.013,0.655,1.517,1.963,1.517c0.72,0,1.418-0.203,2.093-0.614l-0.698,4.461
		c-0.967,0.411-2.101,0.621-3.403,0.629c-1.658,0.007-2.998-0.468-4.023-1.424c-1.025-0.956-1.537-2.245-1.537-3.865
		c0-0.396,0.032-0.802,0.098-1.22c0.284-1.826,1.098-3.342,2.442-4.553c1.41-1.26,3.094-1.892,5.049-1.892
		C58.212,79.385,59.277,79.619,60.354,80.088"/>
	<path fill="#1B1C20" d="M75.924,79.891l-1.013,6.435c-0.632,4.009-3.165,6.014-7.6,6.014c-3.876,0-5.812-1.518-5.812-4.552
		c0-0.411,0.043-0.899,0.132-1.462l1.013-6.435h5.496l-0.982,6.191c-0.043,0.264-0.065,0.493-0.065,0.682
		c0,0.683,0.312,1.024,0.937,1.024c0.749,0,1.215-0.568,1.396-1.706l0.981-6.191H75.924z"/>
	<polygon fill="#1B1C20" points="84.494,74.051 81.703,91.844 76.185,91.844 78.977,74.051 	"/>
	<polygon fill="#1B1C20" points="94.056,79.891 93.402,84.069 91.549,84.069 90.327,91.844 84.809,91.844 86.031,84.069 
		84.56,84.069 85.214,79.891 86.685,79.891 87.318,75.834 92.836,75.834 92.203,79.891 	"/>
	<path fill="#F8B700" d="M46.034,28.635c0.771-0.244,2.985-0.875,5.327-1.545c2.249-0.642,4.749-1.355,6.277-1.811
		c-0.001-2.316,0.476-4.695,1.378-6.48l-3.717-6.494l-9.364,16.359C45.966,28.654,46.004,28.644,46.034,28.635"/>
	<path fill="#F8B700" d="M54.864,30.687c1.264,0,2.748,0.524,3.453,1.218c0.711,0.701,1.069,1.788,1.04,3.115
		c0.185-0.192,0.378-0.352,0.548-0.493c0.093-0.077,0.226-0.187,0.293-0.256c0.05-0.251,0.012-0.555-0.033-0.931
		c-0.046-0.385-0.103-0.841-0.067-1.353c-0.652-1.021-1.223-2.157-1.732-3.444c-2.569,0.709-9.486,2.622-12.422,3.457
		c0.128,0.403,0.246,0.847,0.31,1.349c0.072,0.588,0.009,1.158-0.048,1.661c-0.048,0.432-0.094,0.841-0.037,1.136
		c0.037,0.199,0.256,0.468,0.469,0.727c0.142,0.172,0.292,0.356,0.425,0.558c1.011,0.186,1.845,0.399,2.572,0.658
		c0.069-0.017,0.138-0.033,0.204-0.051c0.652-0.16,1.42-0.3,2.285-0.1c0.101,0.023,0.196,0.053,0.285,0.089
		c-0.127-0.171-0.256-0.373-0.352-0.615c-0.338-0.853-0.51-1.628-0.514-2.307c-0.002-0.459,0.129-0.854,0.245-1.203
		c0.051-0.155,0.108-0.313,0.14-0.479c0.009-0.045,0.007-0.134,0.006-0.218c-0.002-0.223-0.007-0.525,0.12-0.85
		C52.47,31.294,53.493,30.687,54.864,30.687"/>
	<path fill="#F8B700" d="M88.962,71.111L72.13,41.709l-3.931-6.864c-0.279,0.001-0.556,0.002-0.828,0.014l-0.627,0.031
		c-0.51,0.028-1.016,0.055-1.531,0.058c0.009,0.212,0.011,0.46-0.039,0.722c-0.085,0.442-0.26,0.827-0.415,1.165
		c-0.107,0.235-0.208,0.457-0.249,0.632c-0.006,0.029-0.006,0.125-0.006,0.194c0,0.188,0,0.445-0.078,0.734
		c-0.165,0.621-0.489,1.063-0.749,1.418c-0.118,0.159-0.218,0.296-0.286,0.422l-0.149,0.283l-0.28,0.155
		c-0.178,0.1-0.36,0.204-0.495,0.312c-0.006,0.3,0.018,0.645,0.042,0.982c0.043,0.615,0.088,1.25-0.036,1.814
		c-0.124,0.548-0.427,0.991-0.693,1.382c-0.134,0.196-0.26,0.38-0.332,0.533l-0.132,0.275c-0.457,0.948-1.082,2.249-0.697,3.393
		c0.019,0.042,0.12,0.165,0.194,0.255c0.117,0.142,0.234,0.292,0.341,0.452c0.169,0.261,0.279,0.52,0.367,0.729
		c0.042,0.1,0.1,0.239,0.128,0.28c0.109,0.158,0.318,0.306,0.558,0.478c0.358,0.256,0.804,0.574,1.136,1.091
		c0.286,0.447,0.369,0.909,0.43,1.244c0.027,0.148,0.053,0.301,0.087,0.376c0.012,0.008,0.06,0.028,0.108,0.052
		c0.196,0.1,0.493,0.253,0.809,0.549c0.358,0.339,0.928,1.17,0.953,1.205c0.449,0.66,0.769,1.424,1.079,2.165
		c0.165,0.395,0.334,0.802,0.531,1.205c0.09,0.187,0.195,0.418,0.308,0.669c0.224,0.496,0.671,1.487,0.933,1.823
		c0.707,0.198,1.098,0.361,1.697,0.643c0.583,0.274,1.09,0.985,1.282,1.278c0.341,0.523,0.429,0.717,0.637,1.197
		c0.064,0.046,0.205,0.12,0.304,0.171c0.318,0.165,0.714,0.37,1.034,0.76c0.546,0.663,0.974,1.881,0.958,2.716
		c-0.009,0.386-0.335,1.556-0.859,2.406h15.327V71.111z"/>
	<path fill="#F8B700" d="M43.465,70.833c0.036-0.377,0.266-1.245,1.617-1.268c0.747-0.492,1.225-0.851,1.424-1.073
		c-0.159-0.486-0.95-1.51-1.263-1.917c-0.225-0.292-0.413-0.539-0.52-0.707c-0.261-0.407-0.51-0.771-0.747-1.116
		c-0.78-1.14-1.461-2.133-1.877-3.662c-0.67-0.804-1.733-2.122-1.125-3.813c0.34-0.951,1.221-1.313,1.865-1.578
		c0.152-0.062,0.299-0.123,0.419-0.183c1.818-2.777,5.1-3.744,7.709-4.184c0.02-0.089,0.041-0.177,0.062-0.261
		c0.097-0.399,0.182-0.741,0.154-1.026c-0.053-0.528-0.321-1.209-0.605-1.933c-0.241-0.615-0.491-1.252-0.674-1.936
		c-0.018-0.049-0.052-0.099-0.081-0.149c-0.105-0.183-0.25-0.432-0.304-0.76l-0.012-0.079c-0.109-0.655-0.187-1.123-0.349-1.555
		c-2.628-0.257-4.137-1.715-5.367-2.906c-0.342-0.33-0.761-0.724-1.088-1.014c-0.337,0.098-0.851,0.262-1.389,0.449
		c-0.234,0.081-0.484,0.157-0.718,0.227c-0.164,0.049-0.32,0.096-0.457,0.142c-0.24,0.081-0.457,0.174-0.67,0.264
		c-0.195,0.081-0.402,0.164-0.62,0.242l-0.385,0.672L21.632,71.111H43.44L43.465,70.833z"/>
	<path fill="#F8B700" d="M69.24,69.634c0.193-0.314,0.663-1.086,0.744-1.478c-0.155-0.111-0.411-0.251-0.556-0.293
		c-0.285-0.085-0.552-0.154-0.807-0.222c-0.682-0.181-1.327-0.35-2.018-0.688l-0.21-0.134l-0.259-0.212
		c-0.398-0.331-0.81-0.67-1.213-0.933c-0.159-0.104-0.391-0.193-0.637-0.288c-0.515-0.197-1.157-0.444-1.642-1.028
		c-0.337-0.406-0.498-0.868-0.641-1.277c-0.069-0.197-0.183-0.525-0.26-0.598c-1.558-1.126-2.364-1.731-3.313-2.56
		c-0.477-0.418-0.806-0.83-1.096-1.196c-0.178-0.223-0.341-0.428-0.527-0.62c-0.197,0.126-0.456,0.274-0.794,0.362
		c-0.607,0.157-1.214,0.168-1.802,0.179c-0.406,0.007-0.787,0.013-1.157,0.066c-0.397,0.056-0.877,0.293-1.386,0.545
		c-0.577,0.284-1.232,0.607-1.962,0.763c-0.25,0.055-0.48,0.076-0.693,0.087l0.013,0.271c0.004,0.097,0.066,0.243,0.138,0.416
		c0.105,0.251,0.234,0.566,0.29,0.956c0.078,0.562,0.049,1.1,0.02,1.622c-0.028,0.508-0.055,0.986,0.033,1.367
		c0.134,0.568,0.459,1.437,0.775,2.274c0.757,2.015,1.18,3.226,0.99,4.095h4.026h13.328C68.628,70.642,68.892,70.201,69.24,69.634"
		/>
	<path fill="#1B1C20" d="M57.72,38.146c-0.925-0.545-0.104-1.823,0.292-2.349c0.193-1.385-0.049-2.486-0.656-3.084
		c-0.46-0.456-1.645-0.911-2.703-0.911c-0.8,0-1.529,0.261-1.811,0.983c-0.093,0.237-0.007,0.545-0.072,0.882
		c-0.103,0.525-0.366,1.001-0.363,1.468c0.002,0.679,0.24,1.414,0.436,1.91c0.197,0.496,0.695,0.797,0.8,1.249
		c0.179,0.767-0.222,1.486-0.581,1.542c-0.032,0.004-0.064,0.006-0.091,0.006c-0.508,0-0.698-0.677-1.293-0.814
		c-0.25-0.057-0.471-0.081-0.68-0.081c-0.577,0-1.04,0.179-1.652,0.301c-0.961-0.376-2.055-0.619-3.203-0.808
		c-0.195-0.651-1.078-1.207-1.238-2.056c-0.167-0.877,0.193-1.908,0.072-2.864c-0.105-0.847-0.403-1.518-0.627-2.208
		c1.972-0.587,13.764-3.843,14.462-4.033c0.581,1.642,1.293,3.151,2.184,4.479c-0.195,1.113,0.271,2.012,0,2.937
		c-0.135,0.463-0.935,0.823-1.311,1.395c-0.171,0.26-0.239,0.853-0.437,1.103C58.901,37.629,58.085,37.872,57.72,38.146
		 M70.006,71.369c0.757,0,2.155-0.235,2.199-0.352c0.109-0.008,0.993-1.506,1.009-2.301c0.012-0.576-0.337-1.549-0.71-2.003
		c-0.408-0.495-1.227-0.563-1.477-1.139c-0.212-0.491-0.27-0.622-0.573-1.086c-0.225-0.348-0.583-0.773-0.839-0.893
		c-0.591-0.278-0.933-0.421-1.7-0.629c-0.545-0.148-1.313-2.111-1.749-3.009c-0.561-1.159-0.919-2.339-1.529-3.233
		c-0.211-0.309-0.609-0.848-0.8-1.028c-0.504-0.475-0.906-0.367-1.165-0.954c-0.199-0.454-0.14-1.01-0.438-1.47
		c-0.43-0.67-1.229-0.896-1.674-1.541c-0.187-0.271-0.285-0.682-0.51-1.029c-0.228-0.35-0.537-0.607-0.655-0.954
		c-0.573-1.697,0.364-3.4,0.874-4.48c0.27-0.572,0.82-1.115,0.947-1.688c0.173-0.785-0.126-2.04,0-3.011
		c0.249-0.362,0.627-0.591,1.019-0.808c0.281-0.531,0.767-0.938,0.947-1.616c0.077-0.288,0.004-0.575,0.074-0.882
		c0.133-0.596,0.541-1.159,0.654-1.763c0.107-0.562-0.204-1.281,0.366-1.616c0.212,0.011,0.422,0.016,0.63,0.016
		c0.744,0,1.462-0.055,2.209-0.088c0.315-0.014,0.639-0.017,0.964-0.017c0.142,0,0.286,0,0.429,0.001c0.144,0,0.289,0,0.432,0
		c0.962,0,1.891-0.029,2.617-0.28c1.454-0.5,2.814-2.609,3.057-4.552c0.184-1.482,0.201-3.478-0.562-6.835
		c-0.627-2.748-1.386-4.23-3.007-5.356c-0.4-0.276-1.049-0.607-1.529-0.733c-0.377-0.098-0.779-0.139-1.199-0.139
		c-1.277,0-2.677,0.373-3.769,0.576c-0.906,0.168-1.547,0.385-2.46,0.591c-2.347,0.531-3.778,5.053-3.572,9.042
		c-2.466,0.768-10.738,3.074-12.374,3.59c-0.616,0.193-1.741,0.436-2.245,0.436c-0.067,0-0.123-0.004-0.164-0.014
		c-0.46-0.6-0.781-1.048-1.233-1.525c-1.045-1.107-2.073-2.245-3.689-2.466c-0.175-0.023-0.344-0.038-0.516-0.038
		c-0.806,0-1.731,0.309-4.023,1.402c-2.209,1.054-2.859,1.326-3.204,1.909c-0.821,1.665-0.878,4.04-0.291,5.801
		c0.456,1.37,1.349,2.403,2.137,3.247c0.943,1.004,2.291,1.506,3.543,1.748c0.249,0.048,0.473,0.069,0.682,0.069
		c0.951,0,1.569-0.435,2.449-0.73c0.333-0.111,0.769-0.228,1.165-0.368c0.625-0.216,1.782-0.594,2.005-0.594
		c0.018,0,0.028,0.002,0.035,0.007c0.361,0.289,1.079,0.961,1.529,1.395c1.421,1.372,2.799,2.599,5.316,2.644
		c0.451,0.782,0.559,1.479,0.729,2.495c0.042,0.262,0.28,0.499,0.363,0.808c0.396,1.477,1.193,2.869,1.311,4.04
		c0.079,0.785-0.281,1.524-0.363,2.35c-3.469,0.49-6.374,1.551-7.864,4.039c-0.674,0.442-1.769,0.566-2.041,1.322
		c-0.435,1.211,0.481,2.196,1.093,2.936c0.474,1.937,1.413,2.927,2.548,4.7c0.406,0.635,2.15,2.546,1.966,3.452
		c-0.126,0.624-1.665,1.558-2.184,1.91c-0.046,0-0.093,0-0.139,0c-0.02,0-0.042,0-0.064,0c-0.021,0-0.041,0-0.062,0
		c-0.3,0-0.582,0.018-0.609,0.293c0.196,0.207,0.497,0.255,0.825,0.255c0.28,0,0.58-0.035,0.851-0.035c1.39,0,2.51,0,3.788,0
		c0.952-0.249-1.089-4.275-1.531-6.169c-0.227-0.974,0.067-2.08-0.072-3.083c-0.075-0.543-0.411-0.934-0.437-1.47
		c-0.256-0.33-0.525-0.645-0.656-1.101c0.712-0.437,1.394-0.197,2.186-0.368c1.236-0.263,2.324-1.168,3.422-1.32
		c0.997-0.14,1.983,0.001,2.841-0.222c0.488-0.126,0.73-0.503,1.238-0.586c0.96,0.704,1.254,1.488,2.148,2.269
		c0.876,0.766,1.592,1.312,3.242,2.504c0.6,0.434,0.611,1.477,1.092,2.056c0.503,0.606,1.389,0.679,2.038,1.1
		c0.549,0.358,1.087,0.821,1.564,1.213c0.841,0.409,1.635,0.544,2.659,0.844c0.4,0.119,1.221,0.573,1.311,0.955
		c0.282,1.205-1.67,3.211-1.297,3.439C69.533,71.337,69.725,71.369,70.006,71.369z"/>
	<path fill="#1B1C20" d="M41.271,25.826L55,1.642l8.007,14.103c0.01-0.003,0.021-0.006,0.032-0.009
		c0.466-0.123,0.948-0.247,1.527-0.354c0.028-0.006,0.061-0.013,0.089-0.018L56.399,0.819C56.111,0.313,55.576,0,55,0
		c-0.576,0-1.109,0.313-1.398,0.82L39.787,25.158C40.341,25.306,40.827,25.541,41.271,25.826"/>
	<path fill="#1B1C20" d="M109.784,94.86L74.452,32.621c-0.342,0.471-0.733,0.893-1.166,1.229l35.099,61.829H1.615L33.26,39.938
		c-0.334-0.234-0.644-0.488-0.913-0.776c-0.106-0.113-0.208-0.234-0.312-0.35L0.216,94.86c-0.289,0.507-0.289,1.133,0,1.641
		c0.289,0.508,0.823,0.82,1.399,0.82h106.77c0.577,0,1.11-0.312,1.399-0.82C110.072,95.993,110.072,95.367,109.784,94.86"/>
</g>
</svg>
