<?xml version="1.0" encoding="utf-8"?><!DOCTYPE svg PUBLIC "-//W3C//DTD SVG 1.1//EN" "http://www.w3.org/Graphics/SVG/1.1/DTD/svg11.dtd"><svg version="1.1" id="Слой_1" xmlns="http://www.w3.org/2000/svg" xmlns:xlink="http://www.w3.org/1999/xlink" x="0px" y="0px" width="262px" height="24px" viewBox="-0.34 0.006 262 24" enable-background="new -0.34 0.006 262 24" xml:space="preserve"><g id="Layer_x0020_1"><path fill="#FF0000" d="M198.624,22.471c-0.583,0-1.111-0.194-1.527-0.583c-0.444-0.389-0.639-0.916-0.639-1.611c0-0.583,0.194-1.083,0.611-1.5c0.417-0.417,0.916-0.639,1.527-0.639s1.111,0.194,1.555,0.611c0.417,0.417,0.639,0.916,0.639,1.527c0,0.666-0.222,1.222-0.639,1.583c-0.417,0.389-0.916,0.583-1.5,0.583L198.624,22.471z M204.372,0.395V22.11h7.498c4.249,0,7.192-2.694,7.192-6.665c0-1.111-0.278-6.692-7.192-6.692h-3.471V4.283h8.664V0.367h-12.69V0.395z M208.398,12.669h3.499c2.527,0,3.138,1.749,3.138,2.777c0,1.388-0.944,2.749-3.138,2.749h-3.499v-5.554V12.669z M223.699,22.11h11.663v-3.915h-7.636v-4.998h7.303V9.281h-7.303V4.255h7.636V0.34h-11.663v21.715V22.11z M251.024,0.395h-3.527l-8.608,21.715h4.443l5.943-16.134l5.943,16.134h4.443l-8.608-21.715H251.024z M-0.34,22.11h4.026v-8.22h2.055c6.304,0,7.775-3.999,7.775-6.72c0-2.055-0.833-6.776-7.775-6.776H-0.34V22.11z M3.686,4.283h2.388c1.055,0,3.443,0.167,3.443,2.86c0,2.666-2.388,2.86-3.443,2.86H3.686V4.311V4.283z M13.627,22.11h4.443l2.222-5.609h7.997l2.222,5.609h4.443L25.901,0.395H22.68L13.627,22.11z M21.819,12.614l2.471-6.331l2.471,6.331H21.819z M58.502,6.615c-1.833-4.165-5.582-6.609-10.08-6.609c-7.692,0-11.357,6.387-11.357,11.246c0,4.998,3.693,11.385,11.302,11.385c4.721,0,8.22-2.61,10.025-6.415h-4.665c-1.361,1.749-3.277,2.527-5.221,2.527c-4.165,0-7.414-3.416-7.414-7.498c0-3.804,3.027-7.331,7.387-7.331c2.583,0,4.387,1.333,5.47,2.694h4.582H58.502z M83.133,6.615C81.3,2.45,77.551,0.006,73.053,0.006c-7.692,0-11.357,6.387-11.357,11.246c0,4.998,3.693,11.385,11.302,11.385c4.721,0,8.22-2.61,10.025-6.415h-4.665c-1.361,1.749-3.277,2.527-5.221,2.527c-4.165,0-7.414-3.416-7.414-7.498c0-3.804,3.027-7.331,7.387-7.331c2.583,0,4.387,1.333,5.47,2.694h4.582H83.133z M87.437,22.11h4.026v-8.22h2.055c6.304,0,7.775-3.999,7.775-6.72c0-2.055-0.833-6.776-7.775-6.776h-6.081V22.11z M91.464,4.283h2.388c1.055,0,3.443,0.167,3.443,2.86c0,2.666-2.388,2.86-3.443,2.86h-2.388V4.311V4.283z M115.956,0.006c-6.498,0-11.469,5.082-11.469,11.357s4.998,11.274,11.469,11.274s11.469-4.998,11.469-11.274S122.454,0.006,115.956,0.006z M115.928,18.723c-4.193,0-7.414-3.332-7.414-7.442c0-4.054,3.166-7.359,7.442-7.359c4.249,0,7.442,3.304,7.442,7.359S120.26,18.723,115.928,18.723z M146.224,0.367h-4.026v9.608h-3.721c-0.694,0-1.749-0.056-2.444-0.666c-0.833-0.75-0.778-1.916-0.778-2.499V0.395h-4.026v6.942c0,1.583,0.167,3.693,1.972,5.165c1.527,1.25,3.61,1.388,5.276,1.388h3.693v8.22h4.026V0.395L146.224,0.367z M151.944,22.083h4.026v-9.497l6.748,9.497h4.832l-8.192-11.024l8.192-10.691h-4.832l-6.748,9.414V0.367h-4.026V22.083z M170.077,22.083h4.443l2.221-5.609h7.997l2.221,5.609h4.443l-9.053-21.715h-3.221L170.077,22.083z M178.269,12.586l2.471-6.331l2.471,6.331H178.269z"/></g></svg>