<?xml version="1.0" encoding="utf-8"?>
<!-- Generator: Adobe Illustrator 17.0.0, SVG Export Plug-In . SVG Version: 6.00 Build 0)  -->
<!DOCTYPE svg PUBLIC "-//W3C//DTD SVG 1.1//EN" "http://www.w3.org/Graphics/SVG/1.1/DTD/svg11.dtd">
<svg version="1.1" id="Layer_1" xmlns="http://www.w3.org/2000/svg" xmlns:xlink="http://www.w3.org/1999/xlink" x="0px" y="0px"
	 width="195px" height="67px" viewBox="0 0 195 67" enable-background="new 0 0 195 67" xml:space="preserve">
<g transform="matrix(0.21311475727401794, 0, 0, 0.21311475727401794, 54.36623031831668, 19.205901925534498)">
	<g>
		<path id="rnd1_1_" fill="#FF7300" d="M-87.811-72.156c1.395-1.597,1.93-4.056,1.796-7.186c9.056-2.922,16.923-7.029,25.151-10.778
			c7.539,5.636,20.238,6.11,25.15,14.371c1.174,10.155-4.593,13.374-12.577,14.372c3.821,7.56,0.873,21.883,1.798,32.335
			c-8.471,2.405-20.272,2.405-28.743,0c0-10.179,0-20.36,0-30.54C-80.117-63.081-85.879-65.703-87.811-72.156z M9.2-30.836
			C9.594-41.411-3.096-38.902-5.173-47.005C-6.016-35.98,5.424-37.241,9.2-30.836z M2.012-25.447
			c0.396-10.573-12.293-8.066-14.371-16.168C-12.723-31.072-1.426-32.188,2.012-25.447z M-5.173-20.058
			c-0.048-10.13-10.08-10.278-14.371-16.168C-19.937-25.651-7.249-28.16-5.173-20.058z M16.385-27.244
			C22.436-21.789,21.831-33.885,16.385-27.244L16.385-27.244z M-5.173-3.889c16.167,0,32.335,0,48.504,0
			C41.634-28.516-3.912-29.995-5.173-3.889z M18.183-2.093C7.977-0.92-6.936-4.457-14.155-0.297
			C6.811-1.487,32.544,2.091,50.52-2.093C39.74-2.093,28.961-2.093,18.183-2.093z M-62.659,8.686
			C-49.97,4.632-38.818-8.596-44.695-25.447c-12.219,0.913-22.646,3.08-32.335-1.795c-3.783,4.6-4.45,12.317-7.184,17.963
			c-9.697-14.211-27.108-32.835-52.099-35.928c-27.644-3.422-53.362,5.764-59.284,25.151c12.398-8.676,25.269-16.688,44.912-14.372
			c24.936,2.941,34.415,23.53,34.13,46.709c-0.407,33.59-26.955,53.572-57.486,53.894c-47.078,0.497-77.823-34.702-75.451-88.025
			c2.277-9.582-1.199,3.055-1.794,5.388c-19.389,76.119,37.923,122.733,107.789,102.4c-12.304,63.979,28.108,102.644,55.69,138.328
			c-11.94-39.487-36.874-77.908-28.745-127.55c3.044-18.59,15.241-31.562,26.947-39.522c33.25-22.608,99.456-16.62,107.791-52.099
			C1.742,22.165-42.662,23.504-62.659,8.686z"/>
	</g>
</g>
<g>
	<path fill="#FF7300" d="M94.283,14.527v4.171h-6.555v17.563h-4.893V18.698h-6.555v-4.171H94.283z"/>
	<path fill="#FF7300" d="M112.129,19.765v16.497h-4.705c0-1.046,0.011-2.086,0.032-3.12c0.02-1.035,0.041-1.991,0.063-2.87
		c0.02-0.878,0.047-1.646,0.078-2.305s0.047-1.145,0.047-1.458c-0.608,0.858-1.213,1.725-1.819,2.603
		c-0.608,0.878-1.187,1.741-1.741,2.587c-0.553,0.847-1.077,1.657-1.568,2.43c-0.492,0.774-0.925,1.485-1.302,2.133h-4.109V19.765
		h4.674c0,1.046-0.007,2.044-0.016,2.995c-0.011,0.952-0.026,1.814-0.046,2.587c-0.022,0.774-0.042,1.449-0.063,2.023
		c-0.022,0.575-0.032,1.019-0.032,1.333c1.255-1.84,2.41-3.491,3.466-4.955c1.055-1.463,2.086-2.791,3.089-3.983H112.129z"/>
	<path fill="#FF7300" d="M121.193,25.519c0.448-0.439,0.929-0.919,1.444-1.439c0.515-0.52,1.013-1.036,1.496-1.546
		c0.483-0.51,0.943-1.008,1.376-1.494c0.434-0.485,0.825-0.91,1.172-1.275h5.676c-0.414,0.444-0.93,0.988-1.547,1.636
		c-0.617,0.648-1.271,1.321-1.961,2.022c-0.69,0.7-1.385,1.395-2.086,2.086c-0.701,0.69-1.36,1.3-1.98,1.831
		c0.625,0.483,1.292,1.082,2,1.796c0.708,0.714,1.403,1.478,2.083,2.293c0.68,0.815,1.328,1.641,1.943,2.478
		c0.616,0.838,1.141,1.623,1.579,2.356h-5.319c-0.377-0.566-0.807-1.158-1.289-1.776c-0.482-0.618-0.982-1.228-1.498-1.83
		c-0.517-0.601-1.045-1.164-1.584-1.691c-0.539-0.526-1.041-0.978-1.506-1.357v6.653h-4.673V19.765h4.673L121.193,25.519
		L121.193,25.519z"/>
	<path fill="#FF7300" d="M132.107,24.782h9.095v4.234h-9.095V24.782z"/>
	<path fill="#FF7300" d="M158.891,14.527v4.171h-6.555v17.563h-4.892V18.698h-6.554v-4.171H158.891z"/>
	<path fill="#FF7300" d="M165.289,19.326c1.38,0,2.53,0.157,3.45,0.471c0.92,0.314,1.656,0.763,2.211,1.349
		c0.554,0.585,0.946,1.297,1.176,2.132c0.23,0.836,0.345,1.767,0.345,2.791v9.722c-0.669,0.146-1.6,0.319-2.791,0.518
		c-1.191,0.198-2.635,0.298-4.328,0.298c-1.067,0-2.034-0.094-2.901-0.282c-0.868-0.188-1.615-0.496-2.243-0.925
		c-0.627-0.429-1.108-0.988-1.443-1.678c-0.335-0.69-0.501-1.536-0.501-2.541c0-0.962,0.193-1.777,0.58-2.446
		c0.387-0.669,0.904-1.202,1.552-1.6c0.648-0.396,1.39-0.685,2.227-0.862c0.836-0.178,1.704-0.266,2.603-0.266
		c0.606,0,1.145,0.027,1.615,0.079c0.471,0.053,0.852,0.121,1.145,0.204V25.85c0-0.794-0.24-1.432-0.721-1.913
		c-0.481-0.48-1.317-0.721-2.509-0.721c-0.795,0-1.578,0.058-2.352,0.173c-0.774,0.115-1.442,0.277-2.007,0.486l-0.596-3.763
		c0.272-0.083,0.612-0.173,1.019-0.266c0.408-0.094,0.852-0.177,1.333-0.251c0.48-0.073,0.988-0.136,1.521-0.188
		C164.207,19.352,164.745,19.326,165.289,19.326z M165.665,33c0.459,0,0.899-0.01,1.317-0.031c0.419-0.02,0.753-0.053,1.004-0.095
		v-3.544c-0.188-0.041-0.471-0.083-0.847-0.125c-0.376-0.041-0.721-0.063-1.035-0.063c-0.439,0-0.852,0.027-1.239,0.079
		c-0.387,0.053-0.727,0.152-1.02,0.298c-0.293,0.146-0.522,0.345-0.69,0.596c-0.168,0.251-0.251,0.564-0.251,0.941
		c0,0.732,0.245,1.239,0.737,1.521C164.133,32.859,164.808,33,165.665,33z"/>
	<path fill="#FF7300" d="M181.378,25.519c0.448-0.439,0.929-0.919,1.444-1.439c0.515-0.52,1.013-1.036,1.496-1.546
		c0.483-0.51,0.943-1.008,1.376-1.494c0.434-0.485,0.825-0.91,1.172-1.275h5.676c-0.414,0.444-0.93,0.988-1.547,1.636
		c-0.617,0.648-1.271,1.321-1.961,2.022c-0.69,0.7-1.385,1.395-2.086,2.086c-0.701,0.69-1.36,1.3-1.98,1.831
		c0.625,0.483,1.292,1.082,2,1.796c0.708,0.714,1.403,1.478,2.083,2.293c0.68,0.815,1.328,1.641,1.943,2.478
		c0.616,0.838,1.141,1.623,1.579,2.356h-5.319c-0.377-0.566-0.807-1.158-1.289-1.776c-0.482-0.618-0.982-1.228-1.498-1.83
		c-0.517-0.601-1.045-1.164-1.584-1.691c-0.539-0.526-1.041-0.978-1.506-1.357v6.653h-4.673V19.765h4.673L181.378,25.519
		L181.378,25.519z"/>
</g>
<g>
	<path fill="#FF7300" d="M76.458,50.598v-6.147h3.752v0.736h-2.892v1.827h2.572v0.719h-2.572v2.129h3.114v0.736H76.458z"/>
	<path fill="#FF7300" d="M81.718,50.598v1.641h-0.816v-2.377h0.647c0.301-0.343,0.534-0.723,0.696-1.139
		c0.163-0.417,0.281-0.858,0.355-1.322c0.074-0.464,0.118-0.944,0.133-1.441c0.015-0.497,0.026-0.999,0.031-1.508h3.477v5.411h0.772
		v2.377h-0.816v-1.641C86.199,50.598,81.718,50.598,81.718,50.598z M83.608,45.187c-0.018,0.391-0.037,0.788-0.058,1.193
		c-0.021,0.405-0.065,0.807-0.133,1.206c-0.068,0.399-0.167,0.791-0.297,1.176s-0.314,0.752-0.55,1.1h2.812v-4.674H83.608z"/>
	<path fill="#FF7300" d="M87.937,50.598v-6.147h0.843v4.551c0.189-0.314,0.421-0.671,0.696-1.074
		c0.275-0.402,0.568-0.811,0.878-1.229c0.31-0.417,0.624-0.822,0.941-1.216c0.316-0.393,0.614-0.737,0.891-1.033h0.683v6.147h-0.843
		v-4.799c-0.165,0.189-0.346,0.408-0.541,0.656c-0.195,0.248-0.396,0.513-0.603,0.794c-0.207,0.282-0.415,0.572-0.625,0.874
		c-0.21,0.301-0.412,0.599-0.608,0.891c-0.195,0.293-0.377,0.576-0.545,0.847c-0.169,0.272-0.318,0.518-0.448,0.736L87.937,50.598
		L87.937,50.598z"/>
	<path fill="#FF7300" d="M98.262,44.45h0.86v6.147h-0.86v-2.839h-3.007v2.839h-0.86V44.45h0.86v2.564h3.007V44.45z"/>
	<path fill="#FF7300" d="M104.755,50.598c-0.1-0.266-0.196-0.528-0.284-0.785c-0.089-0.257-0.18-0.519-0.275-0.785h-2.786
		l-0.559,1.571h-0.895c0.236-0.65,0.458-1.252,0.666-1.806c0.206-0.553,0.409-1.078,0.608-1.574
		c0.198-0.497,0.394-0.971,0.589-1.424c0.195-0.452,0.399-0.901,0.612-1.344h0.79c0.213,0.444,0.417,0.891,0.612,1.344
		c0.196,0.452,0.392,0.927,0.59,1.424s0.4,1.022,0.608,1.574c0.207,0.553,0.429,1.155,0.666,1.806L104.755,50.598L104.755,50.598z
		 M103.947,48.318c-0.189-0.515-0.377-1.013-0.562-1.494c-0.186-0.482-0.38-0.944-0.582-1.388c-0.207,0.444-0.404,0.906-0.589,1.388
		c-0.186,0.482-0.371,0.98-0.555,1.494H103.947z"/>
	<path fill="#FF7300" d="M109.129,44.389c0.123,0,0.257,0.003,0.398,0.009c0.142,0.006,0.286,0.014,0.431,0.027
		c0.145,0.012,0.287,0.026,0.43,0.044c0.142,0.018,0.272,0.041,0.391,0.071v6.058h-0.861v-2.404h-0.736
		c-0.083,0-0.171-0.001-0.262-0.005c-0.092-0.003-0.214-0.013-0.368-0.031c-0.106,0.142-0.222,0.308-0.346,0.497
		c-0.123,0.189-0.248,0.391-0.372,0.603s-0.247,0.435-0.368,0.666c-0.121,0.231-0.232,0.456-0.333,0.674h-0.905
		c0.095-0.231,0.207-0.471,0.337-0.719c0.13-0.249,0.265-0.485,0.404-0.71c0.138-0.225,0.272-0.433,0.399-0.625
		c0.127-0.192,0.238-0.35,0.333-0.475c-0.137-0.041-0.278-0.1-0.426-0.178c-0.148-0.077-0.284-0.183-0.408-0.319
		c-0.124-0.137-0.226-0.307-0.307-0.51c-0.079-0.204-0.12-0.448-0.12-0.732c0-0.319,0.062-0.6,0.186-0.843
		c0.124-0.242,0.303-0.445,0.536-0.608c0.234-0.162,0.516-0.286,0.847-0.368C108.342,44.43,108.714,44.389,109.129,44.389z
		 M109.058,45.143c-0.225,0-0.439,0.017-0.643,0.053c-0.205,0.035-0.386,0.097-0.546,0.186c-0.159,0.089-0.287,0.21-0.381,0.364
		c-0.095,0.154-0.142,0.345-0.142,0.576c0,0.438,0.14,0.741,0.421,0.91c0.281,0.169,0.702,0.253,1.264,0.253h0.887V45.17
		c-0.065,0-0.142-0.003-0.231-0.009c-0.077-0.006-0.167-0.011-0.27-0.013C109.313,45.144,109.194,45.143,109.058,45.143z"/>
	<path fill="#FF7300" d="M116.996,50.731c-0.431,0-0.825-0.07-1.179-0.213c-0.355-0.142-0.66-0.349-0.914-0.621
		c-0.255-0.272-0.451-0.608-0.589-1.006c-0.139-0.399-0.208-0.857-0.208-1.37c0-0.515,0.078-0.971,0.234-1.371
		c0.157-0.398,0.369-0.734,0.635-1.006c0.266-0.272,0.576-0.479,0.931-0.621c0.355-0.142,0.733-0.213,1.135-0.213
		c0.255,0,0.484,0.017,0.688,0.053c0.204,0.035,0.381,0.077,0.532,0.124c0.151,0.047,0.274,0.095,0.369,0.142
		c0.095,0.047,0.159,0.083,0.195,0.106l-0.248,0.71c-0.053-0.035-0.13-0.074-0.231-0.116c-0.1-0.041-0.215-0.083-0.342-0.123
		c-0.127-0.041-0.266-0.075-0.417-0.102c-0.151-0.026-0.303-0.04-0.457-0.04c-0.326,0-0.618,0.056-0.878,0.169
		c-0.261,0.112-0.482,0.275-0.666,0.488c-0.184,0.213-0.324,0.472-0.422,0.776c-0.097,0.305-0.146,0.646-0.146,1.025
		c0,0.367,0.043,0.7,0.129,1.002c0.085,0.302,0.214,0.561,0.386,0.776c0.171,0.216,0.386,0.383,0.643,0.501
		c0.257,0.119,0.558,0.178,0.901,0.178c0.396,0,0.725-0.041,0.985-0.124s0.455-0.156,0.585-0.222l0.222,0.71
		c-0.041,0.03-0.116,0.067-0.222,0.111c-0.106,0.045-0.239,0.088-0.398,0.129c-0.16,0.041-0.346,0.077-0.559,0.106
		C117.473,50.718,117.244,50.731,116.996,50.731z"/>
	<path fill="#FF7300" d="M122.114,45.187c-0.012,0.331-0.024,0.652-0.035,0.962c-0.012,0.311-0.03,0.612-0.053,0.905
		c-0.024,0.293-0.06,0.578-0.106,0.856c-0.047,0.278-0.113,0.551-0.196,0.816c-0.083,0.266-0.184,0.516-0.306,0.75
		c-0.122,0.234-0.272,0.438-0.452,0.612c-0.18,0.175-0.394,0.314-0.639,0.421c-0.245,0.106-0.534,0.166-0.864,0.178l-0.097-0.745
		c0.414-0.047,0.734-0.178,0.962-0.391c0.228-0.213,0.416-0.538,0.563-0.976c0.165-0.497,0.27-1.095,0.315-1.796
		c0.044-0.7,0.066-1.477,0.066-2.329h3.486v6.147h-0.86v-5.411h-1.783V45.187z"/>
	<path fill="#FF7300" d="M129.015,48.717c-0.119,0.272-0.241,0.528-0.369,0.767c-0.127,0.24-0.278,0.448-0.452,0.625
		c-0.175,0.177-0.385,0.316-0.63,0.417c-0.245,0.101-0.549,0.15-0.91,0.15c-0.07,0-0.145-0.005-0.222-0.013
		c-0.077-0.009-0.15-0.021-0.222-0.036c-0.07-0.014-0.133-0.031-0.186-0.049s-0.092-0.035-0.116-0.053l0.15-0.727
		c0.077,0.03,0.17,0.06,0.28,0.089s0.223,0.044,0.342,0.044c0.178,0,0.333-0.022,0.465-0.067c0.133-0.044,0.253-0.106,0.36-0.186
		c0.106-0.079,0.201-0.177,0.284-0.292c0.083-0.115,0.162-0.244,0.239-0.386c-0.26-0.42-0.505-0.838-0.736-1.256
		c-0.231-0.417-0.444-0.82-0.639-1.211c-0.195-0.391-0.372-0.761-0.532-1.113s-0.301-0.675-0.425-0.971h0.975
		c0.196,0.515,0.445,1.088,0.75,1.721c0.305,0.633,0.643,1.296,1.015,1.987c0.236-0.538,0.463-1.132,0.679-1.779
		c0.215-0.647,0.418-1.29,0.608-1.929h0.931c-0.136,0.425-0.272,0.827-0.408,1.202c-0.136,0.375-0.272,0.736-0.408,1.082
		c-0.137,0.346-0.272,0.683-0.408,1.011C129.295,48.075,129.157,48.398,129.015,48.717z"/>
	<path fill="#FF7300" d="M133.61,47.334c-0.178-0.207-0.373-0.436-0.589-0.688c-0.216-0.251-0.432-0.505-0.647-0.763
		c-0.216-0.257-0.426-0.51-0.63-0.758c-0.204-0.249-0.386-0.473-0.545-0.674h1.002c0.13,0.166,0.286,0.361,0.465,0.586
		c0.18,0.224,0.373,0.459,0.577,0.705c0.204,0.245,0.411,0.494,0.621,0.745c0.209,0.252,0.409,0.486,0.599,0.706v-2.742h0.825v2.742
		c0.183-0.219,0.379-0.454,0.589-0.706c0.209-0.251,0.417-0.501,0.621-0.75c0.204-0.249,0.397-0.483,0.581-0.705
		c0.184-0.222,0.341-0.415,0.471-0.582h0.994c-0.159,0.201-0.342,0.425-0.545,0.674c-0.205,0.248-0.414,0.501-0.63,0.758
		c-0.216,0.258-0.43,0.51-0.643,0.758c-0.213,0.249-0.408,0.477-0.586,0.683c0.236,0.213,0.473,0.452,0.71,0.714
		c0.236,0.263,0.466,0.536,0.688,0.82s0.43,0.574,0.626,0.87c0.195,0.295,0.37,0.585,0.523,0.869h-0.975
		c-0.159-0.272-0.341-0.545-0.541-0.82c-0.201-0.275-0.408-0.541-0.621-0.799s-0.427-0.498-0.643-0.723
		c-0.216-0.224-0.422-0.423-0.616-0.594v2.936h-0.825v-2.936c-0.196,0.172-0.402,0.37-0.621,0.594
		c-0.219,0.225-0.435,0.466-0.647,0.723s-0.419,0.524-0.616,0.799c-0.198,0.275-0.377,0.548-0.536,0.82h-0.967
		c0.148-0.284,0.319-0.574,0.515-0.869c0.195-0.296,0.403-0.586,0.625-0.87c0.222-0.284,0.452-0.556,0.692-0.816
		C133.147,47.783,133.379,47.546,133.61,47.334z"/>
	<path fill="#FF7300" d="M140.511,45.187v1.561h0.763c0.431,0,0.817,0.035,1.158,0.106c0.34,0.07,0.628,0.184,0.864,0.341
		c0.236,0.157,0.417,0.358,0.541,0.603c0.124,0.245,0.186,0.546,0.186,0.901c0,0.65-0.236,1.14-0.71,1.468
		c-0.473,0.328-1.141,0.492-2.005,0.492c-0.124,0-0.259-0.003-0.404-0.009c-0.145-0.007-0.289-0.014-0.434-0.027
		c-0.145-0.012-0.287-0.026-0.43-0.044c-0.142-0.018-0.272-0.041-0.391-0.071v-6.058h3.796v0.736L140.511,45.187L140.511,45.187z
		 M141.381,49.906c0.231,0,0.451-0.017,0.661-0.053c0.209-0.035,0.395-0.098,0.555-0.19c0.16-0.092,0.287-0.215,0.381-0.369
		c0.095-0.153,0.142-0.349,0.142-0.585c0-0.248-0.043-0.452-0.128-0.612c-0.086-0.159-0.209-0.287-0.369-0.381
		c-0.16-0.095-0.356-0.161-0.589-0.2c-0.234-0.039-0.498-0.058-0.794-0.058h-0.727v2.421c0.065,0.006,0.142,0.012,0.23,0.017
		c0.077,0.007,0.169,0.009,0.275,0.009C141.124,49.905,141.244,49.906,141.381,49.906z"/>
	<path fill="#FF7300" d="M149.248,50.598c-0.1-0.266-0.196-0.528-0.284-0.785c-0.089-0.257-0.18-0.519-0.275-0.785h-2.786
		l-0.559,1.571h-0.895c0.236-0.65,0.458-1.252,0.666-1.806c0.206-0.553,0.409-1.078,0.608-1.574
		c0.198-0.497,0.394-0.971,0.589-1.424c0.195-0.452,0.399-0.901,0.612-1.344h0.79c0.213,0.444,0.417,0.891,0.612,1.344
		c0.196,0.452,0.393,0.927,0.59,1.424s0.4,1.022,0.608,1.574c0.207,0.553,0.429,1.155,0.666,1.806L149.248,50.598L149.248,50.598z
		 M148.44,48.318c-0.189-0.515-0.377-1.013-0.562-1.494c-0.186-0.482-0.38-0.944-0.582-1.388c-0.207,0.444-0.404,0.906-0.589,1.388
		c-0.186,0.482-0.371,0.98-0.555,1.494H148.44z"/>
	<path fill="#FF7300" d="M153.595,47.006h0.461c0.196,0,0.394-0.014,0.595-0.044c0.201-0.03,0.384-0.085,0.55-0.164
		c0.165-0.08,0.301-0.188,0.408-0.324c0.106-0.137,0.159-0.308,0.159-0.515c0-0.266-0.114-0.483-0.342-0.652
		c-0.228-0.169-0.531-0.253-0.909-0.253c-0.326,0-0.618,0.037-0.878,0.111c-0.26,0.074-0.452,0.15-0.577,0.226l-0.275-0.7
		c0.071-0.047,0.167-0.093,0.288-0.138c0.121-0.044,0.257-0.084,0.408-0.119c0.15-0.036,0.314-0.064,0.492-0.085
		c0.178-0.02,0.36-0.031,0.55-0.031c0.307,0,0.591,0.032,0.851,0.097c0.26,0.065,0.485,0.164,0.674,0.297
		c0.189,0.133,0.337,0.302,0.444,0.506c0.106,0.205,0.159,0.446,0.159,0.723c0,0.284-0.091,0.55-0.27,0.799
		c-0.18,0.248-0.445,0.429-0.794,0.541c0.178,0.047,0.347,0.114,0.51,0.2c0.163,0.086,0.305,0.196,0.426,0.328
		c0.121,0.133,0.219,0.288,0.292,0.466c0.074,0.178,0.111,0.385,0.111,0.621c0,0.325-0.061,0.604-0.181,0.837
		c-0.122,0.234-0.29,0.425-0.506,0.572c-0.216,0.148-0.478,0.256-0.785,0.324c-0.307,0.068-0.647,0.102-1.021,0.102
		c-0.224,0-0.437-0.016-0.639-0.049s-0.381-0.07-0.541-0.116c-0.159-0.044-0.299-0.093-0.417-0.146
		c-0.118-0.053-0.209-0.097-0.275-0.133l0.258-0.71c0.065,0.036,0.152,0.077,0.261,0.124s0.232,0.092,0.368,0.133
		s0.287,0.077,0.452,0.106c0.165,0.03,0.34,0.044,0.524,0.044c0.503,0,0.894-0.085,1.175-0.253c0.281-0.169,0.422-0.454,0.422-0.856
		c0-0.236-0.049-0.43-0.147-0.582c-0.097-0.15-0.231-0.27-0.398-0.359c-0.169-0.089-0.368-0.15-0.595-0.182
		c-0.228-0.032-0.475-0.049-0.74-0.049h-0.55v-0.7H153.595z"/>
	<path fill="#FF7300" d="M162.252,50.598c-0.1-0.266-0.196-0.528-0.284-0.785c-0.089-0.257-0.18-0.519-0.275-0.785h-2.786
		l-0.559,1.571h-0.895c0.236-0.65,0.458-1.252,0.666-1.806c0.206-0.553,0.409-1.078,0.608-1.574
		c0.198-0.497,0.394-0.971,0.589-1.424c0.195-0.452,0.399-0.901,0.612-1.344h0.79c0.213,0.444,0.417,0.891,0.612,1.344
		c0.196,0.452,0.393,0.927,0.59,1.424s0.4,1.022,0.608,1.574c0.207,0.553,0.429,1.155,0.666,1.806L162.252,50.598L162.252,50.598z
		 M161.444,48.318c-0.189-0.515-0.377-1.013-0.562-1.494c-0.186-0.482-0.38-0.944-0.582-1.388c-0.207,0.444-0.404,0.906-0.589,1.388
		c-0.186,0.482-0.371,0.98-0.555,1.494H161.444z"/>
	<path fill="#FF7300" d="M168.576,44.45c-0.183,0.201-0.391,0.424-0.621,0.67c-0.23,0.246-0.472,0.497-0.723,0.753
		c-0.251,0.258-0.501,0.51-0.75,0.759c-0.249,0.248-0.482,0.478-0.701,0.692c0.255,0.178,0.524,0.396,0.807,0.656
		s0.561,0.538,0.834,0.834c0.272,0.296,0.528,0.597,0.767,0.905c0.239,0.308,0.439,0.6,0.599,0.878h-1.011
		c-0.178-0.278-0.381-0.558-0.612-0.838c-0.231-0.28-0.475-0.55-0.731-0.807c-0.258-0.258-0.518-0.496-0.78-0.714
		c-0.263-0.219-0.519-0.405-0.767-0.559v2.918h-0.861v-6.147h0.861v2.715c0.206-0.195,0.435-0.415,0.683-0.661
		c0.249-0.245,0.494-0.492,0.736-0.741c0.242-0.248,0.471-0.486,0.687-0.714c0.216-0.228,0.398-0.427,0.545-0.599L168.576,44.45
		L168.576,44.45z"/>
	<path fill="#FF7300" d="M174.013,50.598c-0.1-0.266-0.196-0.528-0.284-0.785c-0.089-0.257-0.18-0.519-0.275-0.785h-2.786
		l-0.559,1.571h-0.895c0.236-0.65,0.458-1.252,0.666-1.806c0.206-0.553,0.409-1.078,0.608-1.574
		c0.198-0.497,0.394-0.971,0.589-1.424c0.195-0.452,0.399-0.901,0.612-1.344h0.79c0.213,0.444,0.417,0.891,0.612,1.344
		c0.196,0.452,0.393,0.927,0.59,1.424s0.4,1.022,0.608,1.574c0.207,0.553,0.429,1.155,0.666,1.806L174.013,50.598L174.013,50.598z
		 M173.206,48.318c-0.189-0.515-0.377-1.013-0.562-1.494c-0.186-0.482-0.38-0.944-0.582-1.388c-0.207,0.444-0.404,0.906-0.589,1.388
		c-0.186,0.482-0.371,0.98-0.555,1.494H173.206z"/>
	<path fill="#FF7300" d="M176.453,47.006h0.461c0.196,0,0.394-0.014,0.595-0.044s0.384-0.085,0.55-0.164
		c0.165-0.08,0.301-0.188,0.408-0.324c0.106-0.137,0.16-0.308,0.16-0.515c0-0.266-0.114-0.483-0.342-0.652
		c-0.228-0.169-0.531-0.253-0.909-0.253c-0.326,0-0.618,0.037-0.878,0.111c-0.26,0.074-0.452,0.15-0.577,0.226l-0.275-0.7
		c0.071-0.047,0.167-0.093,0.288-0.138c0.121-0.044,0.257-0.084,0.408-0.119c0.15-0.036,0.314-0.064,0.492-0.085
		c0.178-0.02,0.36-0.031,0.55-0.031c0.307,0,0.591,0.032,0.851,0.097c0.26,0.065,0.485,0.164,0.674,0.297
		c0.189,0.133,0.337,0.302,0.444,0.506c0.106,0.205,0.16,0.446,0.16,0.723c0,0.284-0.091,0.55-0.27,0.799
		c-0.18,0.248-0.445,0.429-0.794,0.541c0.178,0.047,0.347,0.114,0.51,0.2c0.163,0.086,0.305,0.196,0.426,0.328
		c0.121,0.133,0.219,0.288,0.292,0.466s0.111,0.385,0.111,0.621c0,0.325-0.061,0.604-0.181,0.837
		c-0.122,0.234-0.29,0.425-0.506,0.572c-0.216,0.148-0.478,0.256-0.785,0.324c-0.307,0.068-0.647,0.102-1.021,0.102
		c-0.224,0-0.437-0.016-0.639-0.049c-0.201-0.033-0.381-0.07-0.541-0.116c-0.16-0.044-0.299-0.093-0.417-0.146
		c-0.118-0.053-0.209-0.097-0.275-0.133l0.258-0.71c0.065,0.036,0.152,0.077,0.261,0.124s0.232,0.092,0.368,0.133
		s0.287,0.077,0.452,0.106c0.165,0.03,0.34,0.044,0.524,0.044c0.503,0,0.894-0.085,1.175-0.253c0.281-0.169,0.422-0.454,0.422-0.856
		c0-0.236-0.049-0.43-0.147-0.582c-0.097-0.15-0.231-0.27-0.398-0.359c-0.169-0.089-0.368-0.15-0.595-0.182
		c-0.228-0.032-0.475-0.049-0.74-0.049h-0.55v-0.7H176.453z"/>
	<path fill="#FF7300" d="M180.755,47.52c0-0.526,0.078-0.991,0.234-1.393c0.157-0.402,0.37-0.738,0.639-1.007
		c0.27-0.269,0.582-0.472,0.941-0.608c0.358-0.136,0.738-0.204,1.139-0.204c0.396,0,0.771,0.068,1.122,0.204
		s0.661,0.339,0.927,0.608c0.266,0.269,0.478,0.605,0.634,1.007c0.157,0.402,0.235,0.866,0.235,1.393s-0.078,0.99-0.235,1.392
		c-0.156,0.402-0.368,0.738-0.634,1.007c-0.266,0.269-0.575,0.472-0.927,0.608s-0.726,0.204-1.122,0.204
		c-0.402,0-0.782-0.068-1.139-0.204c-0.358-0.136-0.671-0.339-0.941-0.608c-0.27-0.269-0.482-0.604-0.639-1.007
		C180.833,48.511,180.755,48.047,180.755,47.52z M181.66,47.52c0,0.372,0.047,0.711,0.142,1.015
		c0.095,0.305,0.229,0.563,0.403,0.776c0.174,0.213,0.388,0.377,0.639,0.492s0.534,0.173,0.847,0.173
		c0.313,0,0.595-0.058,0.843-0.173c0.249-0.116,0.459-0.28,0.635-0.492c0.175-0.213,0.309-0.472,0.403-0.776
		c0.095-0.305,0.142-0.643,0.142-1.015s-0.047-0.711-0.142-1.016c-0.095-0.305-0.229-0.563-0.403-0.776
		c-0.175-0.213-0.386-0.377-0.635-0.492c-0.248-0.116-0.53-0.173-0.843-0.173c-0.313,0-0.595,0.058-0.847,0.173
		c-0.251,0.116-0.465,0.28-0.639,0.492c-0.175,0.213-0.309,0.472-0.403,0.776C181.707,46.809,181.66,47.147,181.66,47.52z"/>
	<path fill="#FF7300" d="M189.563,50.652c-0.124,0-0.259-0.003-0.404-0.009s-0.289-0.014-0.434-0.027
		c-0.145-0.012-0.287-0.026-0.43-0.044c-0.142-0.017-0.272-0.041-0.391-0.07V44.54c0.119-0.03,0.249-0.053,0.391-0.071
		c0.142-0.018,0.286-0.033,0.43-0.044c0.145-0.012,0.288-0.021,0.43-0.027c0.142-0.006,0.276-0.009,0.399-0.009
		c0.355,0,0.688,0.027,0.998,0.08c0.311,0.053,0.58,0.144,0.807,0.27s0.406,0.294,0.536,0.501c0.13,0.207,0.195,0.461,0.195,0.763
		c0,0.337-0.079,0.614-0.239,0.83c-0.16,0.216-0.373,0.377-0.639,0.483c0.361,0.106,0.647,0.275,0.861,0.506
		c0.213,0.231,0.319,0.556,0.319,0.975c0,0.616-0.226,1.078-0.679,1.388C191.262,50.496,190.545,50.652,189.563,50.652z
		 M188.756,47.041h0.904c0.213,0,0.414-0.014,0.603-0.044c0.19-0.03,0.354-0.083,0.492-0.159c0.139-0.077,0.249-0.178,0.329-0.302
		c0.079-0.123,0.119-0.281,0.119-0.47c0-0.178-0.041-0.327-0.123-0.448c-0.083-0.121-0.197-0.219-0.342-0.293
		c-0.145-0.074-0.315-0.128-0.51-0.164c-0.195-0.035-0.402-0.053-0.621-0.053c-0.219,0-0.391,0.003-0.514,0.009
		c-0.124,0.006-0.236,0.014-0.337,0.027L188.756,47.041L188.756,47.041z M188.756,47.733v2.164c0.065,0.007,0.142,0.012,0.231,0.018
		c0.076,0.006,0.167,0.011,0.27,0.014c0.103,0.003,0.223,0.005,0.359,0.005c0.255,0,0.496-0.016,0.723-0.049
		c0.228-0.033,0.427-0.091,0.599-0.173c0.172-0.083,0.309-0.198,0.413-0.346c0.103-0.148,0.155-0.334,0.155-0.559
		c0-0.201-0.039-0.371-0.116-0.51c-0.077-0.138-0.188-0.249-0.333-0.332c-0.145-0.083-0.318-0.142-0.519-0.178
		c-0.201-0.036-0.425-0.053-0.673-0.053C189.865,47.733,188.756,47.733,188.756,47.733z"/>
</g>
</svg>
